# xmcd
# Copyright (C) 1995-1998 Ti Kan
#
# Track frame offsets:
#       150
#       19487
#       38630
#       57702
#       76492
#       96582
#       114577
#       132210
#       148987
#       169307
#       187490
#       206187
#
# Disc length: 3047 seconds
#
# Revision: 0
# Processed by: cddbd v1.4b42PL1 Copyright (c) Steve Scherf et al.
# Submitted via: CD-Transfer v1.0
#
DISCID=c50be50c
DTITLE=Marie Louise Werth - Mehr Vom Leben
DYEAR=2000
DGENRE=
TTITLE0=Warum Rufst Du Nicht An?
TTITLE1=Und Das Soll Liebe Sein
TTITLE2=Tut Mir Leid
TTITLE3=Sos - Sex Mal Sex
TTITLE4=Ich Will Mehr (Ich Will Vom Leben Mehr)
TTITLE5=Hallo Macho
TTITLE6=Bilder Im Wind
TTITLE7=Ich Verlieb Mich Nie Mehr
TTITLE8=Wegen Dir
TTITLE9=Die Gläser Sind Leer
TTITLE10=Glück Ist Trumpf
TTITLE11=Buna Notg - Schlaf Nun Ein
EXTD=
EXTT0=
EXTT1=
EXTT2=
EXTT3=
EXTT4=
EXTT5=
EXTT6=
EXTT7=
EXTT8=
EXTT9=
EXTT10=
EXTT11=
PLAYORDER=
